<mxfile host="app.diagrams.net" agent="Mozilla/5.0 (Windows NT 10.0; Win64; x64) AppleWebKit/537.36 (KHTML, like Gecko) Chrome/131.0.0.0 Safari/537.36 Edg/131.0.0.0" version="25.0.3">
  <diagram id="zODZXYkzOwmdCBIVVvN4" name="Page-1">
    <mxGraphModel dx="1862" dy="565" grid="1" gridSize="10" guides="1" tooltips="1" connect="1" arrows="1" fold="1" page="1" pageScale="1" pageWidth="827" pageHeight="1169" math="0" shadow="0">
      <root>
        <mxCell id="0" />
        <mxCell id="1" parent="0" />
        <mxCell id="5B9Hs_-Eanf8-6PZ5Ltr-10" style="edgeStyle=orthogonalEdgeStyle;rounded=0;orthogonalLoop=1;jettySize=auto;html=1;exitX=1;exitY=0.5;exitDx=0;exitDy=0;entryX=1;entryY=0.5;entryDx=0;entryDy=0;" parent="1" source="5B9Hs_-Eanf8-6PZ5Ltr-2" target="5B9Hs_-Eanf8-6PZ5Ltr-9" edge="1">
          <mxGeometry relative="1" as="geometry">
            <Array as="points">
              <mxPoint x="640" y="190" />
              <mxPoint x="640" y="380" />
            </Array>
          </mxGeometry>
        </mxCell>
        <mxCell id="5B9Hs_-Eanf8-6PZ5Ltr-2" value="Cliente" style="rounded=0;whiteSpace=wrap;html=1;fillColor=#d5e8d4;strokeColor=#82b366;" parent="1" vertex="1">
          <mxGeometry x="440" y="160" width="120" height="60" as="geometry" />
        </mxCell>
        <mxCell id="5B9Hs_-Eanf8-6PZ5Ltr-4" value="Name,&amp;nbsp;&lt;div&gt;Password,&amp;nbsp;&lt;/div&gt;&lt;div&gt;Country,&lt;/div&gt;&lt;div&gt;Phone,&lt;/div&gt;&lt;div&gt;Token,&lt;/div&gt;&lt;div&gt;Tokenleasetime&amp;nbsp;&lt;/div&gt;" style="text;html=1;align=center;verticalAlign=middle;resizable=0;points=[];autosize=1;strokeColor=none;fillColor=none;" parent="1" vertex="1">
          <mxGeometry x="450" y="220" width="110" height="100" as="geometry" />
        </mxCell>
        <mxCell id="5B9Hs_-Eanf8-6PZ5Ltr-12" style="edgeStyle=orthogonalEdgeStyle;rounded=0;orthogonalLoop=1;jettySize=auto;html=1;exitX=0;exitY=0.5;exitDx=0;exitDy=0;entryX=0.5;entryY=0;entryDx=0;entryDy=0;" parent="1" source="5B9Hs_-Eanf8-6PZ5Ltr-9" target="MM7-Ua3YRk2wqJzpMgvO-2" edge="1">
          <mxGeometry relative="1" as="geometry" />
        </mxCell>
        <mxCell id="5B9Hs_-Eanf8-6PZ5Ltr-9" value="API Procesos&amp;nbsp;" style="rhombus;whiteSpace=wrap;html=1;" parent="1" vertex="1">
          <mxGeometry x="430" y="320" width="130" height="120" as="geometry" />
        </mxCell>
        <mxCell id="5B9Hs_-Eanf8-6PZ5Ltr-14" style="edgeStyle=orthogonalEdgeStyle;rounded=0;orthogonalLoop=1;jettySize=auto;html=1;exitX=1;exitY=0.5;exitDx=0;exitDy=0;entryX=0;entryY=0.5;entryDx=0;entryDy=0;" parent="1" source="5B9Hs_-Eanf8-6PZ5Ltr-11" target="5B9Hs_-Eanf8-6PZ5Ltr-13" edge="1">
          <mxGeometry relative="1" as="geometry" />
        </mxCell>
        <mxCell id="5B9Hs_-Eanf8-6PZ5Ltr-11" value="Creación TOKEN" style="rounded=0;whiteSpace=wrap;html=1;fillColor=#fff2cc;strokeColor=#d6b656;" parent="1" vertex="1">
          <mxGeometry x="40" y="525" width="120" height="60" as="geometry" />
        </mxCell>
        <mxCell id="5B9Hs_-Eanf8-6PZ5Ltr-13" value="Utilización&lt;br&gt;API" style="rounded=0;whiteSpace=wrap;html=1;fillColor=#f8cecc;strokeColor=#b85450;" parent="1" vertex="1">
          <mxGeometry x="280" y="525" width="120" height="60" as="geometry" />
        </mxCell>
        <mxCell id="5B9Hs_-Eanf8-6PZ5Ltr-15" value="lease de 10 min." style="text;html=1;align=center;verticalAlign=middle;resizable=0;points=[];autosize=1;strokeColor=none;fillColor=none;" parent="1" vertex="1">
          <mxGeometry x="150" y="590" width="110" height="20" as="geometry" />
        </mxCell>
        <mxCell id="MM7-Ua3YRk2wqJzpMgvO-1" value="&lt;div&gt;-ObtenerUsuarios (EFCore)&lt;/div&gt;- CrearUsuario (EFCore)&lt;div&gt;-ObtenerPaisOrigen (Stored Procedure)&lt;/div&gt;&lt;div&gt;&lt;br&gt;&lt;/div&gt;" style="text;html=1;align=center;verticalAlign=middle;resizable=0;points=[];autosize=1;strokeColor=none;fillColor=none;" parent="1" vertex="1">
          <mxGeometry x="395" y="450" width="240" height="70" as="geometry" />
        </mxCell>
        <mxCell id="MM7-Ua3YRk2wqJzpMgvO-3" style="edgeStyle=orthogonalEdgeStyle;rounded=0;orthogonalLoop=1;jettySize=auto;html=1;exitX=1;exitY=0.5;exitDx=0;exitDy=0;entryX=0;entryY=0.5;entryDx=0;entryDy=0;" parent="1" source="MM7-Ua3YRk2wqJzpMgvO-2" target="5B9Hs_-Eanf8-6PZ5Ltr-11" edge="1">
          <mxGeometry relative="1" as="geometry" />
        </mxCell>
        <mxCell id="MM7-Ua3YRk2wqJzpMgvO-2" value="Creación Usuario" style="rounded=0;whiteSpace=wrap;html=1;fillColor=#fff2cc;strokeColor=#d6b656;" parent="1" vertex="1">
          <mxGeometry x="-160" y="525" width="120" height="60" as="geometry" />
        </mxCell>
        <mxCell id="MM7-Ua3YRk2wqJzpMgvO-4" value="requiere user/pass" style="text;html=1;align=center;verticalAlign=middle;resizable=0;points=[];autosize=1;strokeColor=none;fillColor=none;" parent="1" vertex="1">
          <mxGeometry x="30" y="505" width="120" height="20" as="geometry" />
        </mxCell>
      </root>
    </mxGraphModel>
  </diagram>
</mxfile>
